<svg width="32" height="32" viewBox="0 0 32 32" fill="none" xmlns="http://www.w3.org/2000/svg">
  <!-- Background shield -->
  <path d="M4 8C4 6.89543 4.89543 6 6 6H26C27.1046 6 28 6.89543 28 8V18C28 20.2091 26.2091 22 24 22H16L12 26L8 22H8C5.79086 22 4 20.2091 4 18V8Z" fill="#1E5A8A"/>
  
  <!-- Wikipedia W -->
  <g fill="#ffffff">
    <path d="M8 12H10L12.5 20L14.5 16H15.5L17.5 20L20 12H22L18.5 22H17L15 18L13 22H11.5L8 12Z" stroke="#ffffff" stroke-width="0.5"/>
  </g>
  
  <!-- Subtle arrow indicating navigation -->
  <path d="M22 18L24 16L22 14" stroke="#ffffff" stroke-width="1.5" stroke-linecap="round" stroke-linejoin="round" fill="none"/>
</svg>